<?xml version="1.0" encoding="UTF-8"?>
<svg id="Layer_1" data-name="Layer 1" xmlns="http://www.w3.org/2000/svg" viewBox="0 0 2327.28 276.74">
  <defs>
    <style>
      .cls-1 {
        fill: #232152;
      }
    </style>
  </defs>
  <path class="cls-1" d="M226.18,26.37l-38.94,66.82c-2.47,4.24-6.99,6.9-11.93,6.99-12.73.22-37.31.15-50.04.02-4.98-.06-9.55-2.71-12.05-6.99L74.01,25.92c-3.29-5.64-1-12.96,4.99-15.58,31.04-13.59,113.73-14.2,142.77.73,5.6,2.88,7.57,9.88,4.4,15.3Z"/>
  <path class="cls-1" d="M64.7,261.52c-13.12-22.38-26.2-44.8-39.32-67.18-5.93-10.11-11.93-20.18-17.73-30.39C2.54,154.95.15,145.17,0,136.69c-.07-12.92,3.12-23.09,8.65-32.59,11.44-19.57,22.83-39.17,34.24-58.74,1-1.71,2.28-3.14,4.22-3.81,3.12-1.14,6.12.07,8.11,3.31,2.11,3.49,4.14,7.01,6.18,10.5,17.8,30.39,35.56,60.81,53.36,91.16,4.18,7.12,6.82,14.69,7.61,22.88.18,1.71.11,3.45.11,5.16v67.25c0,10.17-3.11,19.07-10.51,26.19-14.44,13.91-37.17,10.78-47.29-6.47h.02Z"/>
  <path class="cls-1" d="M193.83,270.84c-8.19-6.01-12.9-14.2-14.65-24.09-.5-2.85-.64-5.8-.68-8.72-.07-10.61,0-21.21,0-31.81s.11-20.89,0-31.35c-.14-9.86,2.32-19,7.23-27.44,12.05-20.85,24.27-41.56,36.38-62.34,7.61-13.06,15.19-26.12,22.83-39.14.79-1.31,1.75-2.67,2.93-3.6,3-2.27,6.79-1.46,9.07,1.99,2.18,3.31,4.07,6.76,6.08,10.17,9.76,16.69,19.52,33.38,29.21,50.1,3.97,6.83,6.5,14.16,7.48,21.99,1.75,14.23-1.18,27.5-8.33,39.92-13.48,23.42-26.99,46.86-40.46,70.27-4.72,8.22-9.44,16.44-14.19,24.65-4.75,8.22-11.72,13.56-21.27,14.91-7.9,1.1-15.19-.89-21.59-5.59l-.04.04v.03h0Z"/>
  <path class="cls-1" d="M729.57,184.73c-4.93,13.5-11.84,25.89-20.71,37.17-8.87,11.29-19.24,20.98-31.06,29.07-11.84,8.1-24.9,14.42-39.21,18.95-14.3,4.54-29.35,6.81-45.13,6.81-19.97,0-38.77-3.62-56.4-10.86-17.63-7.23-33.05-17.11-46.23-29.62-13.2-12.51-23.55-27.17-31.06-43.98-7.53-16.8-11.28-34.78-11.28-53.91s3.76-37.1,11.28-53.91c7.52-16.8,17.88-31.46,31.06-43.98,13.19-12.51,28.6-22.38,46.23-29.62,17.63-7.24,36.43-10.86,56.4-10.86,15.78,0,30.88,2.27,45.31,6.81,14.42,4.54,27.61,10.92,39.58,19.14,11.96,8.22,22.37,18.03,31.26,29.44,8.88,11.41,15.78,23.86,20.71,37.35h-64.35c-7.65-12.02-17.75-21.65-30.33-28.89-12.57-7.23-26.63-10.86-42.16-10.86-11.84,0-22.93,2.21-33.29,6.62-10.35,4.42-19.42,10.49-27.19,18.22-7.77,7.73-13.93,16.81-18.49,27.23-4.56,10.43-6.84,21.53-6.84,33.3s2.28,22.82,6.84,33.12c4.56,10.3,10.72,19.32,18.49,27.05,7.77,7.73,16.82,13.86,27.19,18.4,10.35,4.54,21.45,6.81,33.29,6.81,15.29,0,29.16-3.55,41.61-10.67,12.45-7.11,22.49-16.56,30.14-28.34h64.35Z"/>
  <path class="cls-1" d="M754.72,5.89h55.48v264.95h-55.48V5.89Z"/>
  <path class="cls-1" d="M900.81,72.13v99.36c0,7.61.92,14.78,2.78,21.53,1.84,6.75,4.68,12.58,8.5,17.48,3.82,4.91,8.62,8.83,14.42,11.78,5.78,2.94,12.51,4.42,20.16,4.42s14.36-1.47,20.16-4.42c5.78-2.94,10.6-6.87,14.41-11.78,3.82-4.9,6.66-10.73,8.51-17.48,1.84-6.74,2.77-13.92,2.77-21.53v-99.36h55.48v99.36c0,14.48-2.4,28.09-7.22,40.85-4.8,12.76-11.65,23.92-20.52,33.49-8.88,9.57-19.55,17.11-31.99,22.63-12.45,5.52-26.32,8.28-41.61,8.28s-29.16-2.76-41.61-8.28c-12.45-5.52-23.11-13.06-31.99-22.63-8.87-9.57-15.72-20.73-20.52-33.49-4.8-12.75-7.22-26.37-7.22-40.85v-99.36h55.48Z"/>
  <path class="cls-1" d="M1137.5,5.89v66.24h55.48v47.1h-55.48v52.26c0,7.61,1.48,14.78,4.45,21.53,2.95,6.75,6.91,12.58,11.84,17.48,4.93,4.91,10.79,8.83,17.57,11.78,6.78,2.94,13.98,4.42,21.63,4.42v50.05h-7.4c-15.29,0-29.28-2.76-41.98-8.28-12.7-5.52-23.6-13.06-32.73-22.63-9.12-9.57-16.21-20.73-21.26-33.49-5.06-12.75-7.58-26.37-7.58-40.85V5.89h55.48-.02Z"/>
  <path class="cls-1" d="M1278.78,5.89v66.24h55.48v47.1h-55.48v52.26c0,7.61,1.48,14.78,4.44,21.53,2.96,6.75,6.91,12.58,11.85,17.48,4.92,4.91,10.79,8.83,17.56,11.78,6.78,2.94,13.99,4.42,21.64,4.42v50.05h-7.4c-15.29,0-29.28-2.76-41.98-8.28-12.71-5.52-23.6-13.06-32.73-22.63-9.12-9.57-16.21-20.73-21.27-33.49-5.05-12.75-7.58-26.37-7.58-40.85V5.89h55.48,0Z"/>
  <path class="cls-1" d="M1465.55,66.24c15.29,0,29.71,2.76,43.28,8.28,13.56,5.52,25.34,13.06,35.31,22.63,9.98,9.57,17.88,20.74,23.67,33.49,5.78,12.76,8.69,26.38,8.69,40.85,0,3.44-.18,6.69-.55,9.75-.37,3.07-.8,6.2-1.29,9.38h-161.26c4.19,10.55,10.91,19.2,20.16,25.94,9.24,6.75,19.91,10.12,31.98,10.12,8.88,0,17.14-1.96,24.79-5.89,7.64-3.92,13.93-9.07,18.86-15.46h61.4c-3.7,10.3-8.95,19.87-15.73,28.71-6.78,8.83-14.79,16.38-24.04,22.63-9.24,6.26-19.35,11.17-30.33,14.72-10.97,3.55-22.62,5.34-34.96,5.34-15.29,0-29.72-2.76-43.27-8.28-13.57-5.52-25.34-13.06-35.32-22.63-9.98-9.57-17.88-20.73-23.67-33.49-5.8-12.75-8.69-26.37-8.69-40.85s2.89-28.09,8.69-40.85c5.78-12.75,13.69-23.92,23.67-33.49,9.99-9.57,21.76-17.11,35.32-22.63,13.55-5.52,27.98-8.28,43.27-8.28h0ZM1517.69,152.35c-4.19-10.54-10.97-19.19-20.34-25.94-9.38-6.75-19.98-10.12-31.81-10.12s-22.74,3.38-31.98,10.12c-9.25,6.75-15.98,15.4-20.16,25.94h104.3Z"/>
  <path class="cls-1" d="M1601.65,171.48c0-14.47,2.52-28.09,7.58-40.85,5.05-12.75,12.14-23.92,21.27-33.49,9.11-9.57,20.03-17.11,32.73-22.63,12.7-5.52,26.68-8.28,41.99-8.28h7.4v50.05c-7.65,0-14.85,1.47-21.64,4.42-6.78,2.94-12.65,6.87-17.57,11.78-4.93,4.91-8.87,10.74-11.84,17.48-2.96,6.75-4.44,13.93-4.44,21.53v99.36h-55.48v-99.36h0Z"/>
  <path class="cls-1" d="M1846.48,66.24c15.29,0,29.59,2.76,42.91,8.28,13.32,5.52,24.91,13.06,34.76,22.63,9.86,9.57,17.69,20.74,23.49,33.49,5.78,12.76,8.69,26.38,8.69,40.85s-2.91,28.09-8.69,40.85c-5.8,12.76-13.63,23.92-23.49,33.49-9.86,9.57-21.44,17.11-34.76,22.63-13.32,5.52-27.61,8.28-42.91,8.28-12.08,0-23.17-2.76-33.28-8.28-10.11-5.52-18.37-12.94-24.79-22.26v24.66h-51.78V5.89h55.48v82.8c7.15-7.11,15.35-12.63,24.59-16.56,9.25-3.92,19.16-5.89,29.77-5.89h0ZM1845.37,226.68c7.64,0,14.85-1.47,21.64-4.42,6.78-2.94,12.63-6.87,17.57-11.78,4.93-4.9,8.87-10.73,11.84-17.48,2.96-6.74,4.44-13.92,4.44-21.53s-1.47-14.78-4.44-21.53c-2.96-6.75-6.91-12.57-11.84-17.48-4.94-4.91-10.79-8.83-17.57-11.78-6.78-2.94-14-4.42-21.64-4.42s-14.85,1.47-21.64,4.42c-6.78,2.94-12.64,6.87-17.56,11.78-4.94,4.91-8.88,10.74-11.85,17.48-2.95,6.75-4.44,13.93-4.44,21.53s1.48,14.78,4.44,21.53c2.96,6.75,6.91,12.58,11.85,17.48,4.92,4.91,10.79,8.83,17.56,11.78,6.78,2.94,13.99,4.42,21.64,4.42Z"/>
  <path class="cls-1" d="M2191.54,171.48c0,14.48-2.91,28.09-8.69,40.85-5.8,12.76-13.69,23.92-23.67,33.49-9.98,9.57-21.63,17.11-34.95,22.63-13.32,5.52-27.61,8.28-42.91,8.28s-29.59-2.76-42.9-8.28c-13.32-5.52-24.97-13.06-34.96-22.63-9.98-9.57-17.87-20.73-23.67-33.49-5.8-12.75-8.69-26.37-8.69-40.85s2.89-28.09,8.69-40.85c5.79-12.75,13.69-23.92,23.67-33.49,9.99-9.57,21.64-17.11,34.96-22.63,13.31-5.52,27.61-8.28,42.9-8.28s29.59,2.76,42.91,8.28c13.32,5.52,24.97,13.06,34.95,22.63,9.99,9.57,17.88,20.74,23.67,33.49,5.78,12.76,8.69,26.38,8.69,40.85ZM2136.06,171.48c0-7.6-1.41-14.78-4.25-21.53-2.84-6.75-6.72-12.57-11.65-17.48-4.93-4.91-10.72-8.83-17.39-11.78-6.65-2.94-13.8-4.42-21.44-4.42s-14.79,1.47-21.45,4.42c-6.66,2.94-12.45,6.87-17.39,11.78-4.93,4.91-8.81,10.74-11.65,17.48-2.84,6.75-4.25,13.93-4.25,21.53s1.41,14.78,4.25,21.53c2.84,6.75,6.72,12.58,11.65,17.48,4.94,4.91,10.72,8.83,17.39,11.78,6.66,2.95,13.81,4.42,21.45,4.42s14.79-1.47,21.44-4.42c6.66-2.95,12.46-6.87,17.39-11.78,4.93-4.91,8.81-10.73,11.65-17.48,2.84-6.74,4.25-13.92,4.25-21.53Z"/>
  <path class="cls-1" d="M2271.79,5.89v66.24h55.47v47.1h-55.47v52.26c0,7.61,1.47,14.78,4.44,21.53,2.96,6.75,6.91,12.58,11.84,17.48,4.93,4.91,10.79,8.83,17.57,11.78,6.78,2.94,13.99,4.42,21.64,4.42v50.05h-7.4c-15.29,0-29.28-2.76-41.99-8.28-12.7-5.52-23.6-13.06-32.73-22.63-9.13-9.57-16.22-20.73-21.27-33.49-5.06-12.75-7.58-26.37-7.58-40.85V5.89h55.48,0Z"/>
</svg>