<?xml version="1.0" encoding="utf-8"?>
<!-- Generator: Adobe Illustrator 19.0.0, SVG Export Plug-In . SVG Version: 6.00 Build 0)  -->
<svg version="1.1" id="Layer_1" xmlns="http://www.w3.org/2000/svg" xmlns:xlink="http://www.w3.org/1999/xlink" x="0px" y="0px"
	 viewBox="-168 362.5 273.1 68.5" style="enable-background:new -168 362.5 273.1 68.5;" xml:space="preserve">
<style type="text/css">
	.st0{fill:none;}
	.st1{fill:#58595B;}
	.st2{fill:#E28914;}
</style>
<g id="Group_5085_1_" transform="translate(69.203 -270.443)">
	<path id="Path_1611_1_" class="st0" d="M-65.9,645.4c-1.6,0.5-2.9,1.8-3.3,3.3H-59C-60,646-63.1,644.4-65.9,645.4L-65.9,645.4z"/>
	<path id="Path_1612_1_" class="st0" d="M-115.2,677.9c-0.7-0.7-1.6-1.3-2.5-1.7c-1-0.4-2-0.6-3-0.6h-3.8v15.2h3.8
		c1,0,2.1-0.2,3-0.6s1.8-0.9,2.5-1.6c1.5-1.4,2.3-3.3,2.3-5.3c0-1-0.2-2-0.6-3C-113.9,679.4-114.4,678.6-115.2,677.9z"/>
	<path id="Path_1614_1_" class="st0" d="M-52.4,681c-1.4-0.6-3-0.6-4.3,0c-1.3,0.6-2.4,1.6-2.9,2.9c-0.3,0.7-0.4,1.4-0.4,2.1
		c0,3,2.4,5.4,5.4,5.4l0,0l0,0c3,0,5.4-2.4,5.4-5.3v-0.1l0,0c0-0.7-0.1-1.5-0.4-2.1C-50.1,682.6-51.2,681.5-52.4,681z"/>
	<path id="Path_1615_1_" class="st1" d="M-124.9,639.6c1-1,1-2.6,0-3.5c-1-1-2.7-1-3.6,0c-1,1-1,2.6,0,3.4l0,0
		C-127.5,640.5-125.9,640.5-124.9,639.6z"/>
	<path id="Path_1616_1_" class="st1" d="M-128.3,641.7c-0.4,0.3-0.7,0.8-0.7,1.4v15.1c0,0.5,0.3,1,0.7,1.4c1,0.8,2.3,0.8,3.3,0
		c0.4-0.3,0.7-0.8,0.7-1.4v-15.1c0-0.5-0.3-1-0.7-1.4C-126,641-127.4,641-128.3,641.7z"/>
	<path id="Path_1617_1_" class="st1" d="M-103.9,659.5c0.4-0.3,0.7-0.8,0.6-1.4v-9.5c0.1-2.1-0.6-4.1-1.9-5.7
		c-1.3-1.4-3.2-2.2-5.1-2.1c-0.7,0-1.4,0.1-2,0.3c-0.6,0.2-1.1,0.5-1.6,0.8c-0.5,0.3-0.9,0.7-1.3,1.1c-0.4,0.4-0.7,0.8-1,1.3h-0.1
		V643c0-0.5-0.3-1-0.7-1.3c-0.5-0.3-1-0.5-1.6-0.5c-0.6,0-1.1,0.2-1.6,0.5c-0.4,0.3-0.7,0.8-0.7,1.3v15.2c0,0.5,0.3,1.1,0.7,1.4
		c1,0.7,2.3,0.7,3.3,0c0.4-0.3,0.7-0.8,0.7-1.4v-8.9c0-1.7,1-3.2,2.5-3.7c0.5-0.2,1.1-0.3,1.6-0.3c0.6,0,1.1,0.1,1.6,0.3
		c1.5,0.6,2.5,2.1,2.5,3.7l0.1,8.9c0,0.5,0.3,1.1,0.7,1.4c0.5,0.4,1.1,0.6,1.7,0.6C-104.8,660-104.4,659.9-103.9,659.5z"/>
	<path id="Path_1618_1_" class="st1" d="M-78.1,656.7c0.4-0.3,0.6-0.8,0.6-1.3v-7.8c0-0.5-0.2-1-0.7-1.4c-0.5-0.4-1-0.6-1.6-0.6
		h-5.7c-0.5,0-1,0.2-1.3,0.6c-0.4,0.4-0.6,1-0.6,1.6s0.2,1.1,0.6,1.5c0.3,0.4,0.8,0.6,1.3,0.6h3.5v4.1c-0.7,0.6-1.6,1-2.4,1.3
		c-2,0.7-4.1,0.7-6-0.1c-1-0.4-1.9-1-2.6-1.8c-2.4-2.4-3.1-5.8-1.8-8.9c1.8-4,6.4-6,10.5-4.4c0.9,0.4,1.8,0.9,2.6,1.5
		c0.4,0.4,0.9,0.5,1.4,0.5c0.6-0.1,1.1-0.3,1.5-0.7c0.4-0.4,0.7-0.9,0.7-1.5c0.1-0.5-0.1-1-0.5-1.4c-1.2-1.1-2.6-1.9-4-2.5
		c-1.5-0.6-3.1-0.9-4.6-0.8c-1.8,0-3.4,0.3-5,1c-1.6,0.6-3,1.5-4.1,2.7c-1.2,1.1-2.2,2.5-2.8,3.9c-1.4,3.2-1.4,6.7,0,9.8
		c0.7,1.5,1.6,2.9,2.8,3.9c1.2,1.1,2.6,2,4.1,2.7c1.6,0.6,3.3,1,5,1s3.4-0.3,5-1C-80.6,658.8-79.2,657.9-78.1,656.7z"/>
	<path id="Path_1619_1_" class="st1" d="M-71.4,657.6c1,0.9,2.1,1.6,3.3,2.1s2.7,0.8,4,0.8c1.5,0,3-0.3,4.3-0.8
		c1.3-0.5,2.6-1.3,3.5-2.2c0.3-0.4,0.4-0.9,0.3-1.3c-0.1-0.5-0.4-1-0.8-1.3c-0.4-0.4-0.9-0.6-1.4-0.6s-1,0.2-1.3,0.5
		c-0.6,0.6-1.4,1-2.2,1.2c-0.8,0.3-1.7,0.4-2.6,0.4c-1.2,0-2.3-0.3-3.3-1c-1-0.6-1.7-1.6-2.1-2.7h12.8c0.3,0,0.6-0.1,0.9-0.2
		s0.5-0.3,0.7-0.5c0.2-0.2,0.4-0.4,0.5-0.7c0.1-0.2,0.2-0.5,0.2-0.8c0-1.3-0.3-2.7-0.8-3.8c-0.5-1.2-1.3-2.2-2.2-3.1
		c-0.9-0.9-2-1.6-3.2-2.1c-1.3-0.5-2.6-0.8-3.9-0.8c-1.4,0-2.7,0.2-3.9,0.7c-1.2,0.5-2.3,1.2-3.3,2.1c-0.9,0.9-1.7,1.9-2.2,3.1
		c-0.6,1.2-0.8,2.6-0.8,3.8c0,1.4,0.3,2.7,0.8,3.8C-73.1,655.6-72.3,656.7-71.4,657.6z M-65.9,645.4c2.9-1,5.9,0.6,6.9,3.3h-10.3
		C-68.8,647.1-67.5,646-65.9,645.4L-65.9,645.4z"/>
	<path id="Path_1620_1_" class="st1" d="M-38.3,649.3v8.9c0,0.6,0.3,1.1,0.7,1.4c0.5,0.4,1.1,0.6,1.7,0.5c0.6,0,1.2-0.2,1.6-0.5
		c0.4-0.3,0.7-0.8,0.7-1.4v-9.5c0.1-2.1-0.6-4.1-1.9-5.7c-1.3-1.4-3.2-2.2-5.1-2.1c-0.7,0-1.4,0.1-2,0.3c-0.6,0.2-1.1,0.5-1.6,0.8
		s-0.9,0.7-1.3,1.1c-0.4,0.4-0.7,0.8-1,1.3h-0.1V643c0-0.5-0.3-1-0.7-1.3c-0.5-0.3-1-0.5-1.6-0.5s-1.1,0.2-1.6,0.5
		c-0.4,0.3-0.6,0.8-0.6,1.3v15.2c0,0.5,0.2,1.1,0.7,1.4c1,0.7,2.3,0.7,3.3,0c0.4-0.3,0.7-0.8,0.7-1.4v-8.9c0-1.7,1-3.2,2.5-3.7
		c0.5-0.2,1.1-0.3,1.6-0.3c0.6,0,1.1,0.1,1.6,0.3C-39.1,646.1-38.2,647.6-38.3,649.3z"/>
	<path id="Path_1621_1_" class="st2" d="M-111.7,674.7c-1.2-1.1-2.5-1.9-3.9-2.5c-1.6-0.6-3.3-0.9-4.9-0.9h-6.1
		c-0.6,0-1.2,0.2-1.6,0.6c-0.4,0.3-0.7,0.8-0.7,1.4v20c0,0.5,0.3,1.1,0.7,1.4c0.5,0.4,1,0.6,1.6,0.6h6.1c1.7,0,3.3-0.3,4.9-0.9
		c1.5-0.6,2.9-1.4,3.9-2.5c1.1-1.1,2.1-2.4,2.7-3.7c1.3-3.1,1.3-6.5,0-9.6C-109.7,677.1-110.6,675.8-111.7,674.7z M-115.2,688.6
		c-0.7,0.7-1.6,1.2-2.5,1.6c-1,0.4-2,0.6-3,0.6h-3.8v-15.2h3.8c1,0,2.1,0.2,3,0.6s1.8,1,2.5,1.7c0.7,0.7,1.3,1.5,1.7,2.5
		c0.4,0.9,0.6,2,0.6,3C-112.9,685.2-113.7,687.2-115.2,688.6L-115.2,688.6z"/>
	<path id="Path_1622_1_" class="st2" d="M-89.1,676.8c-0.3-0.1-0.6-0.2-0.9-0.2s-0.6,0-0.8,0.1c-0.3,0.1-0.5,0.2-0.7,0.4
		c-0.2,0.2-0.4,0.4-0.5,0.6l-5.2,10.7l-5.2-10.7c-0.3-0.5-0.7-0.8-1.2-1c-0.6-0.2-1.2-0.1-1.7,0.2c-0.5,0.2-1,0.6-1.2,1.2
		c-0.2,0.5-0.2,1.1,0,1.5l6.8,14.4l-2,4.1c-0.2,0.5-0.2,1.1,0,1.5c0.3,0.5,0.7,0.9,1.2,1.2c0.3,0.1,0.6,0.2,0.9,0.2s0.6,0,0.8-0.1
		c0.3-0.1,0.5-0.2,0.7-0.4c0.2-0.2,0.4-0.4,0.5-0.6l9.8-20.4c0.2-0.5,0.2-1.1,0-1.5C-88.1,677.4-88.5,677-89.1,676.8z"/>
	<path id="Path_1623_1_" class="st2" d="M-75,676.2c-0.7,0-1.4,0.1-2,0.3c-0.6,0.2-1.1,0.5-1.6,0.8s-0.9,0.7-1.3,1.1
		c-0.4,0.4-0.7,0.8-1,1.3h-0.1v-1.4c0-0.5-0.3-1-0.7-1.3c-0.5-0.3-1-0.5-1.6-0.5c-0.6,0-1.1,0.2-1.6,0.5c-0.4,0.3-0.7,0.8-0.7,1.3
		v15.2c0,0.5,0.2,1.1,0.7,1.4c1,0.7,2.3,0.7,3.3,0c0.4-0.3,0.7-0.8,0.7-1.4v-8.9c0-1.7,1-3.2,2.5-3.7c0.5-0.2,1.1-0.3,1.6-0.3
		c0.6,0,1.1,0.1,1.6,0.3c1.5,0.6,2.5,2.1,2.5,3.7v8.9c0,0.6,0.3,1.1,0.7,1.4c0.5,0.4,1.1,0.6,1.7,0.5c0.6,0,1.2-0.2,1.6-0.5
		c0.4-0.3,0.7-0.8,0.7-1.4V684c0.1-2.1-0.6-4.1-1.9-5.7C-71.3,676.9-73.1,676.2-75,676.2z"/>
	<path id="Path_1624_1_" class="st2" d="M-45.3,677.1c-1-0.8-2.3-0.8-3.3,0c-0.4,0.3-0.7,0.8-0.7,1.4v1.1h-0.1
		c-0.3-0.4-0.7-0.9-1.1-1.3c-0.4-0.4-0.9-0.8-1.4-1c-1.1-0.7-2.5-1-3.7-1c-2.5,0-4.9,1-6.6,2.8c-0.9,0.9-1.6,2-2,3.1
		c-1,2.5-1,5.2,0,7.8c0.5,1.2,1.2,2.2,2,3.1c0.9,0.9,1.9,1.6,3,2.1c1.2,0.5,2.4,0.7,3.6,0.7c0.7,0,1.4-0.1,2.1-0.3
		c0.6-0.2,1.2-0.4,1.7-0.7c0.5-0.3,1-0.6,1.4-1.1c0.4-0.4,0.8-0.8,1.1-1.2h0.1v1.1c0,0.5,0.2,1.1,0.7,1.4c1,0.7,2.3,0.7,3.3,0
		c0.4-0.3,0.7-0.8,0.7-1.4v-15.1C-44.6,677.9-44.9,677.4-45.3,677.1z M-49.2,685.9c0,3-2.4,5.4-5.3,5.4h-0.1l0,0
		c-3,0-5.4-2.5-5.4-5.4l0,0c0-0.7,0.1-1.5,0.4-2.1c0.5-1.3,1.6-2.4,2.9-2.9c1.4-0.6,3-0.6,4.3,0c1.3,0.6,2.4,1.6,2.9,2.9
		C-49.3,684.6-49.1,685.2-49.2,685.9L-49.2,685.9z"/>
	<path id="Path_1625_1_" class="st2" d="M-15.6,678.4c-0.6-0.7-1.3-1.2-2.1-1.6c-0.9-0.4-1.8-0.6-2.8-0.5c-0.6,0-1.2,0.1-1.8,0.3
		c-1.1,0.4-2.1,1-2.9,1.8c-0.4,0.4-0.7,0.8-1,1.2c-0.6-0.9-1.3-1.7-2.1-2.3c-1.4-1-3.2-1.2-4.8-0.6c-0.5,0.2-1,0.5-1.4,0.8
		c-0.4,0.3-0.8,0.7-1.1,1.1c-0.3,0.4-0.5,0.7-0.8,1.1h0v-1.2c0-0.5-0.3-1-0.7-1.3c-0.5-0.3-1-0.5-1.6-0.5c-0.6,0-1.1,0.2-1.6,0.5
		c-0.4,0.3-0.7,0.8-0.7,1.3v15.2c0,0.5,0.2,1.1,0.7,1.4c0.5,0.4,1,0.6,1.6,0.5c0.6,0,1.2-0.2,1.7-0.5c0.4-0.3,0.7-0.8,0.7-1.4v-9.8
		c0-0.4,0.1-0.9,0.3-1.3c0.2-0.4,0.4-0.7,0.7-1c0.3-0.3,0.7-0.5,1.1-0.7c0.4-0.2,0.8-0.3,1.3-0.3c1.8,0,3.3,1.4,3.3,3.2v0.1v9.8
		c0,0.5,0.2,1.1,0.7,1.4c1,0.7,2.3,0.7,3.3,0c0.4-0.3,0.7-0.8,0.7-1.4v-9.8c0-1.3,0.8-2.5,2-3c1.3-0.5,2.7-0.2,3.6,0.7
		c0.6,0.6,1,1.5,1,2.3v9.8c0,0.5,0.3,1.1,0.7,1.4c1,0.8,2.3,0.8,3.3,0c0.4-0.3,0.7-0.8,0.7-1.4v-9.8c0-1.1-0.1-2.1-0.4-3.1
		C-14.5,679.8-15,679-15.6,678.4z"/>
	<path id="Path_1626_1_" class="st2" d="M-9.5,671.5c-1,1-1,2.6,0,3.4l0,0c1,1,2.7,1,3.6,0s1-2.6,0-3.5
		C-6.9,670.5-8.5,670.5-9.5,671.5z"/>
	<path id="Path_1627_1_" class="st2" d="M-6.2,677.1c-1-0.8-2.3-0.8-3.3,0c-0.4,0.3-0.7,0.8-0.7,1.4v15.1c0,0.5,0.2,1,0.6,1.4
		c1,0.8,2.3,0.8,3.3,0c0.4-0.3,0.7-0.8,0.7-1.4v-15.1C-5.5,677.9-5.8,677.4-6.2,677.1z"/>
	<path id="Path_1628_1_" class="st2" d="M6,681c0.7-0.3,1.4-0.4,2.2-0.4c0.7,0,1.3,0.1,1.9,0.3c0.6,0.2,1.2,0.5,1.6,1
		c0.4,0.4,0.9,0.5,1.4,0.5c1.2-0.1,2.1-1.1,2.3-2.3c0-0.6-0.2-1.1-0.7-1.5c-0.9-0.8-1.9-1.4-3-1.8c-1.2-0.4-2.4-0.6-3.5-0.6
		c-1.4,0-2.8,0.2-4,0.7c-0.2,0.1-0.3,0.1-0.5,0.2c-4.8,2.2-7.1,7.8-4.9,12.7l0,0c0.5,1.2,1.3,2.2,2.2,3.1c1,0.9,2.1,1.6,3.3,2.1
		c1.3,0.5,2.7,0.8,4,0.8c1.2,0,2.4-0.2,3.5-0.6c1.1-0.4,2.1-1,3.1-1.8c0.5-0.3,0.7-0.9,0.6-1.5c-0.1-0.6-0.3-1.1-0.7-1.5
		s-0.9-0.7-1.5-0.7c-0.5-0.1-1,0.1-1.4,0.5c-0.5,0.4-1,0.8-1.6,1c-0.6,0.2-1.3,0.4-1.9,0.4c-3,0-5.4-2.4-5.4-5.4
		c0-1.5,0.6-2.9,1.6-3.8C4.7,681.7,5.3,681.3,6,681z"/>
	<path id="Path_1629_1_" class="st2" d="M31.9,685.6c-1.6-1.1-3.4-1.8-5.4-1.9c-0.7-0.1-1.3-0.2-2-0.3c-0.4-0.1-0.8-0.2-1.2-0.4
		c-0.2-0.1-0.4-0.3-0.5-0.5c-0.1-0.2-0.1-0.5-0.1-0.7c0-0.5,0.3-1,0.7-1.2c0.7-0.4,1.5-0.5,2.3-0.5s1.6,0.1,2.4,0.2
		c0.7,0.1,1.5,0.3,2.1,0.6c0.4,0.2,0.9,0.2,1.3,0c0.5-0.2,0.8-0.6,1-1.1c0.2-0.4,0.3-1,0.1-1.5c-0.1-0.4-0.4-0.8-0.8-1
		c-1-0.5-2-0.8-3-1c-1.1-0.3-2.2-0.4-3.3-0.4c-1.1,0-2.1,0.1-3.1,0.4c-0.9,0.2-1.7,0.6-2.4,1.1c-1.4,1-2.1,2.6-2.1,4.1
		c-0.1,1.6,0.5,3.1,1.7,4c1.4,1,3.1,1.7,4.8,1.8c1,0.1,1.8,0.3,2.4,0.4c0.5,0.1,0.9,0.2,1.4,0.4c0.3,0.1,0.5,0.4,0.6,0.6
		c0.1,0.3,0.2,0.6,0.2,0.8c0,0.6-0.4,1.1-0.9,1.4c-0.8,0.4-1.7,0.5-2.5,0.4c-0.9,0-1.9-0.2-2.8-0.4c-0.8-0.2-1.6-0.5-2.4-0.9
		c-0.4-0.2-1-0.3-1.4-0.1c-0.5,0.2-0.9,0.6-1.1,1.1c-0.3,0.5-0.3,1-0.2,1.5c0.1,0.5,0.4,0.9,0.8,1.1c1,0.6,2.1,1,3.3,1.3
		c1.3,0.3,2.6,0.5,3.8,0.4c1.1,0,2.1-0.1,3.2-0.4c0.9-0.2,1.8-0.6,2.6-1.1c0.7-0.5,1.3-1.1,1.8-1.8c0.4-0.8,0.7-1.7,0.6-2.6
		C33.7,688.3,33.1,686.7,31.9,685.6z"/>
	<path id="Path_1630_1_" class="st2" d="M-153.1,651.7c-1.5-2.5-3.3-4.8-5.2-6.9c-2-2.1-4.2-3.9-6.7-5.4c-2.5-1.4-5.2-2.6-8-3.3
		c-2.9-0.8-5.8-1.2-8.9-1.2h-18.3c-1.2,0-2.4,0.4-3.3,1.3s-1.4,2.1-1.3,3.3V696c0,1.2,0.5,2.4,1.3,3.2c0.9,0.9,2.1,1.3,3.3,1.3h18.3
		c3,0,5.9-0.4,8.9-1.2c2.8-0.8,5.4-1.9,8-3.3c2.5-1.4,4.7-3.1,6.7-5c2-2,3.7-4.1,5.2-6.6c4.5-7.5,5.8-16.5,3.3-25
		C-150.4,656.7-151.6,654-153.1,651.7z M-159.7,676.9c-1.2,2.8-2.9,5.2-4.9,7.4c-2.2,2.2-4.7,3.9-7.5,5.1c-3,1.3-6.2,2-9.6,1.9
		h-13.9v-47.2h14c3.3-0.1,6.5,0.6,9.5,1.9c2.9,1.3,5.4,3.2,7.5,5.5c2.1,2.3,3.7,4.9,4.9,7.8c1.2,2.8,1.8,5.8,1.8,8.9
		C-157.8,671.2-158.5,674.1-159.7,676.9L-159.7,676.9z"/>
	<path id="Path_1631_1_" class="st1" d="M-232,642.2h10.3c1,0,1.8-0.8,1.8-1.8l0,0v-5.2c0-1-0.8-1.8-1.8-1.8H-232
		c-1,0-1.8,0.8-1.8,1.8v5.2C-233.8,641.4-233,642.2-232,642.2L-232,642.2z"/>
	<path id="Path_1632_1_" class="st1" d="M-231.9,655.5c-0.8,2.1-1.2,4.3-1.3,6.5h12.8c-0.1-2.3-0.6-4.4-1.3-6.5
		c-3.2-9.6-2.1-13.3-2.1-13.3h-6.1C-229.9,642.2-228.8,646-231.9,655.5z"/>
	<path id="Path_1633_1_" class="st1" d="M-221.2,668c0.4-1.6,0.7-3.2,0.8-4.8h-12.8c0.1,1.6,0.3,3.3,0.8,4.8c1.2,4.6-2.8,9.5-2.8,20
		c0,10.4,6.6,12,8.4,12h0.1c1.8,0,8.4-1.5,8.4-12C-218.4,677.5-222.3,672.7-221.2,668z"/>
</g>
</svg>
